<svg id="OBJECTS" xmlns="http://www.w3.org/2000/svg" viewBox="0 0 419.04 558.18"><defs><style>.cls-1{fill:#5c70fb;}.cls-2{fill:#87d6d2;}</style></defs><circle class="cls-1" cx="345.71" cy="70.84" r="52.43"/><circle class="cls-1" cx="72.99" cy="347.61" r="52.43"/><path class="cls-1" d="M364.7,236.85l-26.31-98.21a68.54,68.54,0,0,1-58-58L182.19,54.34a27.52,27.52,0,0,0-26.59,7.12L61.46,155.6a27.52,27.52,0,0,0-7.12,26.59l26.08,97.33A68.5,68.5,0,0,1,140.94,339l95.91,25.69a27.55,27.55,0,0,0,26.6-7.12l94.13-94.13A27.55,27.55,0,0,0,364.7,236.85Z"/><path class="cls-2" d="M66.16,277.88,39.45,178.2a27.52,27.52,0,0,1,7.12-26.59l105-105a27.52,27.52,0,0,1,26.59-7.12L279.83,66.68a68.14,68.14,0,0,1,12.48-35.43L182.78,1.9a55.81,55.81,0,0,0-53.91,14.45L16.35,128.87A55.81,55.81,0,0,0,1.9,182.78L31.13,291.84A68.15,68.15,0,0,1,66.16,277.88Z"/><path class="cls-2" d="M417.14,236.26,387.79,126.73a68.14,68.14,0,0,1-35.43,12.48l27.23,101.63a27.55,27.55,0,0,1-7.12,26.6l-105,105a27.55,27.55,0,0,1-26.6,7.12l-99.68-26.7a68.15,68.15,0,0,1-14,35l109.06,29.23a55.81,55.81,0,0,0,53.91-14.45L402.69,290.17A55.81,55.81,0,0,0,417.14,236.26Z"/><path class="cls-1" d="M86.91,470.74a162.17,162.17,0,0,1,24-1.81c16.19,0,27.72,3.76,35.36,10.88s12.31,17.23,12.31,31.35-4.41,25.9-12.57,33.94-21.63,12.56-38.6,12.56a181.15,181.15,0,0,1-20.46-1Zm11.27,77.2a70.82,70.82,0,0,0,11.39.65c24.1,0,37.18-13.47,37.18-37,.13-20.6-11.53-33.68-35.36-33.68A64.56,64.56,0,0,0,98.18,479Z"/><path class="cls-1" d="M218.38,516H184.45v31.48h37.82v9.45H173.18v-87.3h47.15V479H184.45v27.59h33.93Z"/><path class="cls-1" d="M236.91,470.74a109.69,109.69,0,0,1,20.59-1.81c11.27,0,18.53,1.94,24,6.35,4.53,3.37,7.25,8.55,7.25,15.41,0,8.42-5.57,15.8-14.76,19.17v.26c8.28,2.07,18,8.94,18,21.89a23.57,23.57,0,0,1-7.38,17.49c-6.09,5.57-15.94,8.16-30.18,8.16a131.28,131.28,0,0,1-17.49-1Zm11.27,35.75h10.23c11.92,0,18.91-6.21,18.91-14.63,0-10.24-7.77-14.25-19.17-14.25a48.11,48.11,0,0,0-10,.78Zm0,41.84a60,60,0,0,0,9.45.52c11.66,0,22.41-4.27,22.41-17C280,520,269.81,515,257.5,515h-9.32Z"/><path class="cls-1" d="M305.56,543.15a39.93,39.93,0,0,0,20.21,5.7c11.53,0,18.26-6.09,18.26-14.89,0-8.17-4.66-12.83-16.45-17.36-14.25-5.05-23.05-12.44-23.05-24.74,0-13.6,11.27-23.71,28.23-23.71,8.94,0,15.42,2.08,19.3,4.28l-3.1,9.19a34.84,34.84,0,0,0-16.58-4.14c-11.92,0-16.46,7.12-16.46,13.08,0,8.16,5.32,12.18,17.36,16.84,14.77,5.7,22.28,12.83,22.28,25.65,0,13.47-10,25.13-30.57,25.13-8.42,0-17.61-2.46-22.28-5.57Z"/></svg>